<svg width="895" height="305" viewBox="0 0 895 305" fill="none" xmlns="http://www.w3.org/2000/svg">
<path d="M535.829 -0.5C474.014 -0.5 423.79 46.2 423.79 103.9C423.79 161.6 473.907 208.3 535.829 208.3C597.751 208.3 647.867 161.6 647.867 103.9C647.76 46.3 597.643 -0.4 535.829 -0.5ZM535.829 169.1C497.195 169.1 465.858 139.9 465.858 103.9C465.858 67.9 497.195 38.7 535.829 38.7C574.463 38.7 605.799 67.9 605.799 103.9C605.799 139.9 574.463 169.1 535.829 169.1Z" fill="black"/>
<path d="M381.209 -0.100073C377.346 -0.500073 373.59 -0.700073 369.726 -0.700073C367.795 -0.700073 365.97 -0.700073 364.146 -0.600073C362.321 -0.500073 360.39 -0.400073 358.565 -0.300073C351.053 0.199927 343.541 1.39993 336.243 3.29993C321.326 6.99993 307.268 13.5999 295.141 22.4999C282.692 31.6999 272.819 43.4999 266.058 56.8999C262.731 63.5999 260.263 70.6999 258.653 77.8999C257.902 81.4999 257.365 85.0999 256.936 88.6999C256.829 90.4999 256.614 92.2999 256.614 94.0999L256.507 96.7999V99.2999L256.614 134.3L256.721 169.2L256.936 204.1H298.897L299.112 169.2L299.219 134.3L299.326 99.2999V97.2999V95.5999C299.326 94.4999 299.541 93.3999 299.541 92.2999C299.756 90.0999 300.185 87.9999 300.614 85.7999C301.58 81.5999 302.975 77.4999 304.907 73.5999C308.77 65.7999 314.565 58.9999 321.756 53.5999C329.268 47.9999 337.96 43.8999 347.19 41.5999C351.912 40.3999 356.848 39.5999 361.785 39.1999C363.073 39.0999 364.253 38.9999 365.541 38.9999C366.829 38.9999 368.117 38.8999 369.297 38.8999C371.658 38.8999 374.126 38.9999 376.487 39.1999C386.038 40.0999 395.268 42.7999 403.746 47.1999L424.673 13.2999C411.365 6.09993 396.556 1.49993 381.209 -0.100073Z" fill="black"/>
<path d="M113.005 -1.00002C51.1907 -1.50002 0.536985 44.8 0.000399139 102.4C-0.536186 160 49.1516 207.2 110.966 207.7H149.815V168.6H113.005C74.3712 169 42.6053 140.2 42.176 104.1C41.7468 68 72.6541 38.5 111.396 38.1C111.932 38.1 112.469 38.1 113.005 38.1C151.64 38.1 182.976 67.3 183.191 103.3V199.4C183.191 235.1 151.961 264.2 113.757 264.6C95.4053 264.5 77.9126 257.6 65.0346 245.5L35.3077 273.2C55.9126 292.5 83.8151 303.5 113.005 303.7H114.508C175.571 302.9 224.615 256.7 224.937 199.8V100.7C223.435 44.2 173.747 -0.900016 113.005 -1.00002Z" fill="black"/>
<path d="M783.086 -0.5C721.271 -0.5 671.047 46.2 671.154 103.9C671.154 161.5 721.271 208.2 783.086 208.2H821.398V169.1H783.086C744.452 169.1 713.115 139.9 713.115 103.9C713.115 67.9 744.452 38.7 783.086 38.7C819.359 38.7 849.622 64.6 852.842 98.3H852.735V298.7H894.696V103.9C894.696 46.3 844.793 -0.5 783.086 -0.5Z" fill="black"/>
</svg>
