<svg width="485" height="481" viewBox="0 0 485 481" fill="none" xmlns="http://www.w3.org/2000/svg">
<mask id="mask0_2051_759" style="mask-type:luminance" maskUnits="userSpaceOnUse" x="0" y="0" width="485" height="481">
<path d="M484.697 0.958008H0.557617V480.776H484.697V0.958008Z" fill="white"/>
</mask>
<g mask="url(#mask0_2051_759)">
<path d="M186.247 175.611V130.028C186.247 126.189 187.688 123.309 191.045 121.392L282.693 68.612C295.168 61.415 310.043 58.058 325.395 58.058C382.972 58.058 419.441 102.682 419.441 150.182C419.441 153.54 419.441 157.379 418.96 161.218L323.955 105.558C318.198 102.201 312.438 102.201 306.681 105.558L186.247 175.611ZM400.246 353.145V244.224C400.246 237.505 397.365 232.707 391.609 229.349L271.175 159.296L310.52 136.743C313.878 134.826 316.758 134.826 320.116 136.743L411.763 189.523C438.155 204.879 455.906 237.505 455.906 269.171C455.906 305.636 434.316 339.225 400.246 353.141V353.145ZM157.938 257.182L118.593 234.152C115.236 232.235 113.795 229.354 113.795 225.515V119.956C113.795 68.617 153.14 29.749 206.401 29.749C226.556 29.749 245.265 36.468 261.103 48.463L166.579 103.164C160.823 106.521 157.943 111.319 157.943 118.039V257.186L157.938 257.182ZM242.627 306.122L186.247 274.455V207.283L242.627 175.616L299.003 207.283V274.455L242.627 306.122ZM278.853 451.989C258.699 451.989 239.99 445.27 224.152 433.276L318.675 378.574C324.432 375.217 327.312 370.419 327.312 363.699V224.552L367.139 247.582C370.496 249.499 371.937 252.379 371.937 256.219V361.778C371.937 413.117 332.11 451.985 278.853 451.985V451.989ZM165.135 344.99L73.4866 292.211C47.0946 276.854 29.3436 244.229 29.3436 212.562C29.3436 175.616 51.4156 142.509 85.4806 128.593V237.991C85.4806 244.71 88.3616 249.508 94.1176 252.866L214.075 322.437L174.73 344.99C171.373 346.907 168.492 346.907 165.135 344.99ZM159.86 423.68C105.64 423.68 65.8136 382.895 65.8136 332.514C65.8136 328.675 66.2946 324.836 66.7716 320.997L161.296 375.698C167.052 379.056 172.813 379.056 178.569 375.698L299.003 306.127V351.71C299.003 355.549 297.563 358.429 294.205 360.346L202.558 413.126C190.082 420.323 175.207 423.68 159.855 423.68H159.86ZM278.853 480.776C336.912 480.776 385.371 439.513 396.411 384.812C450.15 370.896 484.697 320.515 484.697 269.176C484.697 235.587 470.304 202.962 444.393 179.45C446.792 169.373 448.232 159.296 448.232 149.224C448.232 80.611 392.572 29.267 328.275 29.267C315.323 29.267 302.847 31.184 290.371 35.505C268.776 14.392 239.027 0.958008 206.401 0.958008C148.343 0.958008 99.8836 42.22 88.8436 96.921C35.1046 110.837 0.557617 161.218 0.557617 212.557C0.557617 246.146 14.9506 278.771 40.8616 302.283C38.4626 312.36 37.0226 322.437 37.0226 332.51C37.0226 401.123 92.6826 452.466 156.979 452.466C169.932 452.466 182.408 450.549 194.884 446.228C216.474 467.341 246.223 480.776 278.853 480.776Z" fill="black"/>
</g>
</svg>
