<svg xmlns="http://www.w3.org/2000/svg" version="1.1" xmlns:xlink="http://www.w3.org/1999/xlink" xmlns:svgjs="http://svgjs.dev/svgjs" width="101.81818181818183" height="98.64"><svg version="1.0" preserveAspectRatio="xMidYMid meet" viewBox="-13.018867924528301 -96.88 101.81818181818183 98.64" xmlns:xlink="http://www.w3.org/1999/xlink" xmlns="http://www.w3.org/2000/svg" style="max-height: 500px" width="101.81818181818183" height="98.64">
    <defs>
        <g></g>
    </defs>
    <g transform="translate(12, 0)" fill-opacity="1" fill="#ff00ff">
        <g>
            <g>
                <path d="M 75.578125 -1.4375 C 75.734375 -1.125 75.691406 -0.804688 75.453125 -0.484375 C 75.210938 -0.160156 74.894531 0 74.5 0 L 57.890625 0 C 57.328125 0 56.960938 -0.238281 56.796875 -0.71875 L 37.78125 -54.390625 L 19.015625 -0.71875 C 18.929688 -0.238281 18.53125 0 17.8125 0 L 1.328125 0 C 0.765625 0 0.378906 -0.160156 0.171875 -0.484375 C -0.0234375 -0.804688 -0.0390625 -1.125 0.125 -1.4375 L 36.578125 -95.546875 C 36.742188 -96.035156 37.144531 -96.28125 37.78125 -96.28125 C 38.425781 -96.28125 38.828125 -96.035156 38.984375 -95.546875 Z M 75.578125 -1.4375"></path>
            </g>
        </g>
    </g>
    <g transform="translate(-12,0)" fill-opacity="1" fill="#00ffff">
        <g>
            <g>
                <path d="M 75.578125 -1.4375 C 75.734375 -1.125 75.691406 -0.804688 75.453125 -0.484375 C 75.210938 -0.160156 74.894531 0 74.5 0 L 57.890625 0 C 57.328125 0 56.960938 -0.238281 56.796875 -0.71875 L 37.78125 -54.390625 L 19.015625 -0.71875 C 18.929688 -0.238281 18.53125 0 17.8125 0 L 1.328125 0 C 0.765625 0 0.378906 -0.160156 0.171875 -0.484375 C -0.0234375 -0.804688 -0.0390625 -1.125 0.125 -1.4375 L 36.578125 -95.546875 C 36.742188 -96.035156 37.144531 -96.28125 37.78125 -96.28125 C 38.425781 -96.28125 38.828125 -96.035156 38.984375 -95.546875 Z M 75.578125 -1.4375"></path>
            </g>
        </g>
    </g>
    <g fill-opacity="1" fill="#000000">
        <g>
            <g>
                <path d="M 75.578125 -1.4375 C 75.734375 -1.125 75.691406 -0.804688 75.453125 -0.484375 C 75.210938 -0.160156 74.894531 0 74.5 0 L 57.890625 0 C 57.328125 0 56.960938 -0.238281 56.796875 -0.71875 L 37.78125 -54.390625 L 19.015625 -0.71875 C 18.929688 -0.238281 18.53125 0 17.8125 0 L 1.328125 0 C 0.765625 0 0.378906 -0.160156 0.171875 -0.484375 C -0.0234375 -0.804688 -0.0390625 -1.125 0.125 -1.4375 L 36.578125 -95.546875 C 36.742188 -96.035156 37.144531 -96.28125 37.78125 -96.28125 C 38.425781 -96.28125 38.828125 -96.035156 38.984375 -95.546875 Z M 75.578125 -1.4375"></path>
            </g>
        </g>
    </g>
</svg><style>@media (prefers-color-scheme: light) { :root { filter: none; } }
@media (prefers-color-scheme: dark) { :root { filter: none; } }
</style></svg>